<?xml version="1.0" standalone="yes"?>

<svg version="1.1" viewBox="0.0 0.0 260.0 120.0" fill="none" stroke="none" stroke-linecap="square" stroke-miterlimit="10" xmlns="http://www.w3.org/2000/svg" xmlns:xlink="http://www.w3.org/1999/xlink"><clipPath id="p.0"><path d="m0 0l260.0 0l0 120.0l-260.0 0l0 -120.0z" clip-rule="nonzero"></path></clipPath><g clip-path="url(#p.0)"><path fill="#000000" fill-opacity="0.0" d="m0 0l260.0 0l0 120.0l-260.0 0z" fill-rule="evenodd"></path><path fill="#000000" fill-opacity="0.0" d="m0 0l260.0 0l0 118.708664l-260.0 0z" fill-rule="evenodd"></path><path fill="#8e7cc3" d="m46.376953 71.26245q0 -0.859375 -0.34375 -1.546875q-0.328125 -0.703125 -0.890625 -1.234375q-0.5625 -0.53125 -1.296875 -0.921875q-0.734375 -0.40625 -1.53125 -0.6875q-0.796875 -0.28125 -1.578125 -0.484375q-0.78125 -0.203125 -1.453125 -0.34375q-0.796875 -0.171875 -1.703125 -0.375q-0.890625 -0.21875 -1.75 -0.515625q-0.859375 -0.296875 -1.65625 -0.703125q-0.78125 -0.421875 -1.375 -1.0q-0.578125 -0.59375 -0.9375 -1.375q-0.34375 -0.796875 -0.328125 -1.828125q0 -0.984375 0.34375 -1.75q0.359375 -0.78125 0.9375 -1.375q0.578125 -0.59375 1.34375 -1.015625q0.765625 -0.421875 1.609375 -0.671875q0.859375 -0.265625 1.734375 -0.390625q0.890625 -0.140625 1.6875 -0.140625q1.484375 0 2.90625 0.34375q1.421875 0.328125 2.5625 1.046875q1.15625 0.71875 1.890625 1.875q0.75 1.140625 0.859375 2.78125l-1.09375 0q-0.03125 -1.359375 -0.71875 -2.296875q-0.6875 -0.953125 -1.734375 -1.546875q-1.046875 -0.59375 -2.28125 -0.859375q-1.234375 -0.28125 -2.390625 -0.28125q-0.984375 0 -2.125 0.203125q-1.140625 0.203125 -2.140625 0.703125q-0.984375 0.484375 -1.65625 1.296875q-0.65625 0.796875 -0.6875 2.03125q-0.015625 0.90625 0.3125 1.578125q0.34375 0.65625 0.890625 1.15625q0.5625 0.484375 1.296875 0.84375q0.734375 0.34375 1.515625 0.609375q0.78125 0.25 1.5625 0.421875q0.796875 0.171875 1.453125 0.3125q1.25 0.28125 2.625 0.6875q1.390625 0.40625 2.546875 1.09375q1.15625 0.6875 1.890625 1.75q0.75 1.046875 0.75 2.625q0 1.03125 -0.375 1.84375q-0.359375 0.8125 -0.96875 1.4375q-0.609375 0.609375 -1.421875 1.046875q-0.796875 0.4375 -1.6875 0.703125q-0.890625 0.265625 -1.828125 0.390625q-0.921875 0.125 -1.78125 0.125q-0.9375 0 -1.921875 -0.125q-0.96875 -0.125 -1.90625 -0.40625q-0.921875 -0.296875 -1.75 -0.734375q-0.828125 -0.453125 -1.46875 -1.078125q-0.640625 -0.640625 -1.0625 -1.484375q-0.40625 -0.859375 -0.484375 -1.9375l1.078125 0q0.15625 1.390625 0.90625 2.296875q0.75 0.90625 1.8125 1.453125q1.0625 0.53125 2.328125 0.75q1.28125 0.203125 2.46875 0.203125q0.671875 0 1.453125 -0.09375q0.78125 -0.09375 1.546875 -0.3125q0.765625 -0.234375 1.484375 -0.578125q0.734375 -0.34375 1.28125 -0.84375q0.5625 -0.515625 0.890625 -1.15625q0.34375 -0.65625 0.359375 -1.515625zm7.0507812 -15.96875l0.03125 2.78125q0.609375 -1.375 1.8125 -2.25q1.203125 -0.875 3.1875 -0.921875q1.0625 0 1.828125 0.265625q0.78125 0.265625 1.328125 0.71875q0.546875 0.453125 0.875 1.046875q0.328125 0.59375 0.5 1.234375q0.3125 -0.640625 0.796875 -1.21875q0.5 -0.59375 1.171875 -1.046875q0.671875 -0.453125 1.515625 -0.71875q0.84375 -0.28125 1.859375 -0.28125q1.03125 0 1.796875 0.265625q0.78125 0.265625 1.296875 0.71875q0.53125 0.453125 0.859375 1.046875q0.34375 0.59375 0.53125 1.25q0.203125 0.65625 0.265625 1.34375q0.0625 0.671875 0.0625 1.28125l-0.03125 15.625l-0.953125 0l-0.046875 -15.625q0 -0.6875 -0.109375 -1.546875q-0.109375 -0.859375 -0.5 -1.609375q-0.390625 -0.75 -1.15625 -1.25q-0.75 -0.5 -2.0625 -0.453125q-1.28125 0.03125 -2.15625 0.421875q-0.875 0.390625 -1.4375 1.0q-0.5625 0.609375 -0.890625 1.328125q-0.3125 0.71875 -0.53125 1.40625q0 0.09375 0 0.171875q0.015625 0.0625 0.015625 0.140625l-0.03125 16.015625l-0.96875 0l-0.03125 -16.015625q-0.015625 -0.6875 -0.140625 -1.46875q-0.109375 -0.796875 -0.515625 -1.46875q-0.40625 -0.671875 -1.15625 -1.109375q-0.75 -0.453125 -2.015625 -0.421875q-1.375 0.03125 -2.25 0.5q-0.859375 0.46875 -1.40625 1.203125q-0.546875 0.734375 -0.828125 1.640625q-0.28125 0.890625 -0.484375 1.75l-0.03125 15.390625l-0.953125 0l0 -21.140625l0.953125 0zm40.67578 21.140625q-0.234375 -1.0 -0.3125 -1.96875q-0.078125 -0.984375 -0.09375 -1.984375q-0.6875 1.078125 -1.640625 1.90625q-0.9375 0.8125 -2.046875 1.359375q-1.109375 0.53125 -2.359375 0.796875q-1.25 0.28125 -2.5625 0.28125q-1.265625 0 -2.484375 -0.390625q-1.203125 -0.375 -2.140625 -1.09375q-0.9375 -0.71875 -1.515625 -1.796875q-0.5625 -1.078125 -0.5625 -2.46875q0 -1.890625 0.921875 -3.125q0.921875 -1.25 2.375 -1.96875q1.453125 -0.734375 3.25 -1.03125q1.796875 -0.296875 3.546875 -0.3125l5.21875 0l0 -3.09375q-0.03125 -1.421875 -0.578125 -2.46875q-0.546875 -1.0625 -1.46875 -1.734375q-0.90625 -0.6875 -2.109375 -1.03125q-1.1875 -0.34375 -2.515625 -0.34375q-1.171875 0 -2.40625 0.3125q-1.21875 0.3125 -2.21875 0.953125q-0.984375 0.625 -1.65625 1.59375q-0.65625 0.96875 -0.71875 2.296875l-1.046875 -0.046875q0.078125 -1.53125 0.828125 -2.6875q0.75 -1.15625 1.890625 -1.921875q1.140625 -0.78125 2.53125 -1.171875q1.40625 -0.390625 2.796875 -0.390625q1.5625 0 2.953125 0.421875q1.390625 0.421875 2.4375 1.25q1.0625 0.828125 1.671875 2.09375q0.625 1.265625 0.671875 2.921875l0 10.578125q0.015625 1.078125 0.1875 2.0625q0.171875 0.96875 0.375 2.03125l0.015625 0.171875l-1.234375 0zm-9.015625 -0.640625q1.390625 0.015625 2.6875 -0.296875q1.296875 -0.328125 2.421875 -0.96875q1.125 -0.65625 2.015625 -1.609375q0.90625 -0.953125 1.484375 -2.203125l0 -5.0l-5.15625 0q-1.0 0.015625 -2.0625 0.109375q-1.0625 0.09375 -2.078125 0.328125q-1.015625 0.234375 -1.921875 0.625q-0.90625 0.390625 -1.578125 1.0q-0.671875 0.609375 -1.078125 1.4375q-0.40625 0.828125 -0.375 1.9375q0 1.125 0.5 2.0q0.515625 0.859375 1.3125 1.453125q0.8125 0.578125 1.8125 0.890625q1.015625 0.296875 2.015625 0.296875zm31.972656 -20.890625q0.703125 0 1.40625 0.09375q0.703125 0.09375 1.34375 0.21875l-0.109375 1.0q-0.578125 -0.09375 -1.265625 -0.171875q-0.6875 -0.09375 -1.375 -0.09375q-1.625 0 -3.15625 0.359375q-1.53125 0.359375 -2.796875 1.1875q-1.25 0.828125 -2.1875 2.171875q-0.921875 1.328125 -1.359375 3.265625l0.0625 13.5l-1.203125 0l0 -21.140625l1.03125 0l0.109375 3.671875l0 1.359375q1.171875 -2.609375 3.609375 -4.015625q2.453125 -1.421875 5.890625 -1.40625zm16.925781 -5.3125l-0.015625 5.703125l7.625 0l0 1.078125l-7.625 0l0 15.0q0.046875 1.234375 0.4375 2.0625q0.40625 0.828125 1.109375 1.34375q0.703125 0.515625 1.640625 0.75q0.953125 0.234375 2.09375 0.234375q1.578125 0 3.09375 -0.171875l0.21875 1.0q-0.796875 0.15625 -1.609375 0.1875q-0.796875 0.046875 -1.609375 0.046875q-1.40625 0 -2.578125 -0.28125q-1.171875 -0.28125 -2.03125 -0.921875q-0.859375 -0.65625 -1.359375 -1.6875q-0.484375 -1.03125 -0.515625 -2.5625l0 -15.0l-6.21875 0l0 -1.078125l6.21875 0l0 -5.703125l1.125 0z" fill-rule="nonzero"></path><path fill="#6aa84f" d="m161.17773 66.88745l6.4375 -24.578125l7.265625 0l-10.328125 34.125l-6.703125 0l-10.3125 -34.125l7.265625 0l6.375 24.578125zm34.289062 2.421875l-10.25 0l-2.015625 7.125l-6.9375 0l11.1875 -34.125l5.96875 0l10.96875 34.125l-6.9375 0l-1.984375 -7.125zm-8.625 -5.609375l7.078125 0l-3.5 -12.5625l-3.578125 12.5625zm45.726562 -16.03125l-10.53125 0l0 28.765625l-6.609375 0l0 -28.765625l-10.375 0l0 -5.359375l27.515625 0l0 5.359375z" fill-rule="nonzero"></path></g></svg>

